<?xml version="1.0" encoding="utf-8"?>
<!-- Generator: Adobe Illustrator 24.3.0, SVG Export Plug-In . SVG Version: 6.00 Build 0)  -->
<svg version="1.1" id="Layer_1" xmlns="http://www.w3.org/2000/svg" xmlns:xlink="http://www.w3.org/1999/xlink" x="0px" y="0px"
	 viewBox="0 0 800 227" style="enable-background:new 0 0 800 227;" xml:space="preserve">
<style type="text/css">
	.st0{fill:url(#SVGID_1_);}
	.st1{fill:url(#SVGID_2_);}
	.st2{fill:url(#SVGID_3_);}
	.st3{fill:url(#SVGID_4_);}
	.st4{fill:url(#SVGID_5_);}
	.st5{fill:url(#SVGID_6_);}
	.st6{fill:url(#SVGID_7_);}
</style>
<g>
	<g>
		<path d="M42.24,216.8c-10.34,0-18.15-1.72-23.4-5.16c-5.26-3.44-7.97-9.12-8.14-17.04c0-1.72,0.93-2.58,2.8-2.58
			c1.53,0,3.85,0.39,6.99,1.16c3.14,0.77,9.11,1.16,17.93,1.16c14.92,0,28.65-1.59,41.2-4.78c12.55-3.18,23.44-7.48,32.68-12.9
			c9.24-5.42,16.4-11.53,21.49-18.33c5.09-6.79,7.63-13.89,7.63-21.29c0-6.71-1.99-12.09-5.98-16.13
			c-3.99-4.04-9.24-7.14-15.77-9.29c-6.53-2.15-13.65-3.57-21.36-4.26c-7.72-0.69-15.3-1.03-22.76-1.03c-3.22,0-6.45,0.04-9.66,0.13
			c-3.22,0.09-6.27,0.13-9.16,0.13c-3.73,13.08-7.38,26.58-10.94,40.52c-3.56,13.94-7.29,27.62-11.19,41.04
			c-5.09,0-9.5-1.38-13.23-4.13c-3.73-2.75-5.6-6.11-5.6-10.07c0-1.55,0.29-3.57,0.89-6.07c0.59-2.49,1.48-5.46,2.67-8.9
			c1.02-3.27,2.75-8.69,5.21-16.26c2.46-7.57,5.38-16.52,8.77-26.84c3.39-10.32,7.16-21.21,11.32-32.65
			c4.15-11.44,8.48-22.67,12.97-33.68c4.49-11.01,8.94-20.91,13.35-29.68c-6.78,1.55-12.38,3.36-16.79,5.42
			c-4.41,2.06-7.88,3.87-10.43,5.42c-2.54,1.55-4.49,2.32-5.85,2.32c-1.02,0-2.33-0.6-3.94-1.81c-1.61-1.2-3.05-2.58-4.32-4.13
			c-1.27-1.55-1.91-2.92-1.91-4.13c9.16-3.78,18.65-7.14,28.49-10.07c9.83-2.92,21.7-4.39,35.61-4.39c6.1,0,12.8,0.48,20.09,1.42
			c7.29,0.95,14.24,2.84,20.86,5.68c6.61,2.84,12.08,7.06,16.4,12.65c4.32,5.59,6.49,13.03,6.49,22.33c0,7.4-1.57,13.81-4.71,19.23
			c-3.14,5.42-7.34,10.07-12.59,13.94c-5.26,3.87-11.02,7.06-17.29,9.55c-6.27,2.5-12.46,4.52-18.57,6.07
			c10.51,1.38,19.29,3.57,26.32,6.58c7.03,3.01,12.63,6.5,16.79,10.45c4.15,3.96,7.12,8.05,8.9,12.26c1.78,4.22,2.67,8.3,2.67,12.26
			c0,10.16-2.63,19.27-7.88,27.36c-5.26,8.09-12.17,15.14-20.73,21.16c-8.56,6.02-17.97,11.05-28.23,15.1
			c-10.26,4.04-20.47,7.1-30.65,9.16C59.54,215.77,50.38,216.8,42.24,216.8z M59.28,96.78c9.49-0.34,18.82-1.46,27.98-3.36
			c9.16-1.89,17.42-4.69,24.8-8.39c7.38-3.7,13.26-8.52,17.68-14.45c4.41-5.94,6.61-13.29,6.61-22.07c0-8.26-2.21-14.62-6.61-19.1
			c-4.41-4.47-10.17-7.57-17.29-9.29c-7.12-1.72-14.75-2.58-22.89-2.58c-0.17,0-0.34,0-0.51,0c-0.17,0-0.34,0-0.51,0
			C82.76,29.07,77.51,41.59,72.76,55.1C68.01,68.61,63.52,82.5,59.28,96.78z"/>
		<path d="M182.38,202.6c-7.63,0-12.84-2.54-15.64-7.61s-4.2-10.62-4.2-16.65c0-5.5,0.85-11.14,2.54-16.91
			c1.69-5.76,4.03-11.14,6.99-16.13c2.96-4.99,6.27-8.99,9.92-12c3.64-3.01,7.33-4.52,11.06-4.52c1.18,0,2.58,0.22,4.2,0.65
			c1.61,0.43,2.75,1.08,3.43,1.94c-2.03,2.58-4.11,5.77-6.23,9.55c-2.12,3.79-4.07,7.79-5.85,12c-1.78,4.22-3.18,8.48-4.2,12.78
			c-1.02,4.3-1.53,8.26-1.53,11.87c0,3.44,0.64,6.28,1.91,8.52c1.27,2.24,3.52,3.36,6.74,3.36c3.22,0,7.08-1.85,11.57-5.55
			c4.49-3.7,8.77-7.96,12.84-12.78c-5.43-4.99-9.33-10.45-11.7-16.39c-2.38-5.94-3.56-13.12-3.56-21.55c0-3.61,0.89-7.74,2.67-12.39
			c1.78-4.65,4.66-8.69,8.65-12.13c3.98-3.44,9.37-5.16,16.15-5.16c7.29,0,12.42,2.06,15.39,6.19c2.96,4.13,4.45,9.03,4.45,14.71
			c0,6.37-1.65,13.51-4.96,21.42c-3.31,7.92-7.25,15.4-11.83,22.46c2.03,1.03,4.41,1.55,7.12,1.55c2.54,0,5.6-0.6,9.16-1.81
			c3.56-1.2,7.03-3.23,10.43-6.07c3.39-2.84,6.1-6.67,8.14-11.49l4.58,3.36c-3.73,8.78-8.69,15.19-14.88,19.23
			c-6.19,4.04-12.25,6.07-18.18,6.07c-2.21,0-4.41-0.21-6.61-0.64c-2.21-0.43-4.24-0.99-6.1-1.68
			c-5.77,6.88-12.38,12.91-19.84,18.07C197.55,200.02,190.01,202.6,182.38,202.6z M222.56,162.86c4.07-6.02,7.54-12.47,10.43-19.36
			c2.88-6.88,4.32-13.25,4.32-19.1c0-3.96-0.6-6.84-1.78-8.65c-1.19-1.81-2.97-2.71-5.34-2.71c-3.22,0-6.53,2.32-9.92,6.97
			c-3.39,4.65-5.09,10.5-5.09,17.55c0,3.61,0.64,8,1.91,13.16C218.37,155.89,220.19,159.93,222.56,162.86z"/>
		<path d="M276.99,202.6c-7.63,0-12.84-2.54-15.64-7.61s-4.2-10.62-4.2-16.65c0-5.5,0.85-11.14,2.54-16.91
			c1.69-5.76,4.03-11.14,6.99-16.13c2.96-4.99,6.27-8.99,9.92-12c3.64-3.01,7.33-4.52,11.06-4.52c1.18,0,2.58,0.22,4.2,0.65
			c1.61,0.43,2.75,1.08,3.43,1.94c-2.03,2.58-4.11,5.77-6.23,9.55c-2.12,3.79-4.07,7.79-5.85,12c-1.78,4.22-3.18,8.48-4.2,12.78
			c-1.02,4.3-1.53,8.26-1.53,11.87c0,3.44,0.64,6.28,1.91,8.52c1.27,2.24,3.52,3.36,6.74,3.36c3.22,0,7.08-1.85,11.57-5.55
			c4.49-3.7,8.77-7.96,12.84-12.78c-5.43-4.99-9.33-10.45-11.7-16.39c-2.38-5.94-3.56-13.12-3.56-21.55c0-3.61,0.89-7.74,2.67-12.39
			c1.78-4.65,4.66-8.69,8.65-12.13c3.98-3.44,9.37-5.16,16.15-5.16c7.29,0,12.42,2.06,15.39,6.19c2.96,4.13,4.45,9.03,4.45,14.71
			c0,6.37-1.65,13.51-4.96,21.42c-3.31,7.92-7.25,15.4-11.83,22.46c2.03,1.03,4.41,1.55,7.12,1.55c2.54,0,5.6-0.6,9.16-1.81
			c3.56-1.2,7.03-3.23,10.43-6.07c3.39-2.84,6.1-6.67,8.14-11.49l4.58,3.36c-3.73,8.78-8.69,15.19-14.88,19.23
			c-6.19,4.04-12.25,6.07-18.18,6.07c-2.21,0-4.41-0.21-6.61-0.64c-2.21-0.43-4.24-0.99-6.1-1.68
			c-5.77,6.88-12.38,12.91-19.84,18.07C292.16,200.02,284.62,202.6,276.99,202.6z M317.17,162.86c4.07-6.02,7.54-12.47,10.43-19.36
			c2.88-6.88,4.32-13.25,4.32-19.1c0-3.96-0.6-6.84-1.78-8.65c-1.19-1.81-2.97-2.71-5.34-2.71c-3.22,0-6.53,2.32-9.92,6.97
			c-3.39,4.65-5.09,10.5-5.09,17.55c0,3.61,0.64,8,1.91,13.16C312.98,155.89,314.8,159.93,317.17,162.86z"/>
		<path d="M435.43,204.15c-5.26,0-9.83-1.72-13.73-5.16c-3.9-3.44-7.04-7.74-9.41-12.91c-2.38-5.16-4.16-10.45-5.34-15.87
			c-1.19-5.42-1.78-10.11-1.78-14.07c2.37-0.52,5.34-1.29,8.9-2.32s7.2-2.45,10.94-4.26c3.73-1.81,6.82-4.04,9.28-6.71
			c2.46-2.67,3.69-5.89,3.69-9.68c0-3.1-0.98-5.59-2.92-7.48c-1.95-1.89-4.71-2.84-8.27-2.84c-4.75,0-9.24,1.59-13.48,4.77
			c-4.24,3.19-8.18,7.36-11.83,12.52c-3.65,5.16-6.95,10.76-9.92,16.78c-2.97,6.03-5.6,11.87-7.88,17.55
			c-2.29,5.68-4.2,10.58-5.72,14.71c-1.87,5.16-3.65,8.65-5.34,10.45c-1.7,1.81-4.16,2.71-7.38,2.71c-1.19,0-2.59-0.35-4.2-1.03
			c-1.61-0.69-2.97-2.41-4.07-5.16c-1.1-2.75-1.65-7.14-1.65-13.16c0-10.49,1.44-22.02,4.32-34.59
			c2.88-12.56,6.74-25.33,11.57-38.33c4.83-12.99,10.13-25.42,15.9-37.3c5.76-11.87,11.61-22.54,17.55-32
			c5.93-9.46,11.48-16.95,16.66-22.46c5.17-5.5,9.45-8.26,12.84-8.26c2.88,0,5.3,1.77,7.25,5.29c1.95,3.53,2.92,8.05,2.92,13.55
			c0,5.85-1.27,12.35-3.82,19.49c-2.54,7.14-6.15,14.37-10.81,21.68c-4.67,7.32-10.22,14.24-16.66,20.78
			c-6.45,6.54-13.57,12.13-21.36,16.78c-4.75,11.19-8.39,22.24-10.94,33.17c-2.54,10.93-4.16,20.61-4.83,29.04
			c3.05-7.05,6.53-14.28,10.43-21.68c3.9-7.4,8.22-14.33,12.97-20.78c4.74-6.45,9.88-11.66,15.39-15.62
			c5.51-3.96,11.4-5.94,17.68-5.94c6.78,0,12.72,2.41,17.8,7.23c5.09,4.82,7.63,10.84,7.63,18.07c0,5.16-1.36,9.64-4.07,13.42
			c-2.71,3.79-6.06,6.93-10.05,9.42c-3.99,2.5-8.01,4.35-12.08,5.55c-4.07,1.21-7.55,1.9-10.43,2.06c0.51,2.24,1.23,5.08,2.16,8.52
			c0.93,3.44,2.16,6.8,3.69,10.07c1.53,3.27,3.47,6.02,5.85,8.26c2.37,2.24,5.17,3.36,8.39,3.36c4.24,0,8.6-1.98,13.1-5.94
			c4.49-3.96,8.9-9.2,13.23-15.74c4.32-6.54,8.18-13.76,11.57-21.68l3.56,4.39c-2.88,8.61-6.83,16.87-11.83,24.78
			c-5,7.92-10.55,14.32-16.66,19.23C448.15,201.7,441.88,204.15,435.43,204.15z M399.07,90.07c4.58-4.13,9.41-9.25,14.5-15.36
			c5.09-6.11,9.45-12.65,13.1-19.62c3.64-6.97,5.55-13.64,5.72-20c0-0.17,0-0.3,0-0.39c0-0.08,0-0.21,0-0.39
			c-1.7,0.69-4.37,3.66-8.01,8.9c-3.65,5.25-7.67,11.92-12.08,20C407.88,71.32,403.47,80.26,399.07,90.07z"/>
		<path d="M492.66,202.09c-7.46,0-13.06-2.24-16.79-6.71s-5.59-9.89-5.59-16.26c0-3.96,0.68-8.94,2.03-14.97
			c1.36-6.02,3.26-12.34,5.72-18.97c2.46-6.62,5.3-12.86,8.52-18.71c3.22-5.85,6.7-10.62,10.43-14.33c3.73-3.7,7.46-5.55,11.19-5.55
			c2.03,0,3.81,0.65,5.34,1.94c1.53,1.29,2.29,3.14,2.29,5.55c0,2.24-1.32,5.59-3.94,10.07c-2.63,4.48-5.68,9.64-9.16,15.49
			c-3.48,5.85-6.53,11.92-9.16,18.2c-2.63,6.28-3.94,12.26-3.94,17.94c0,5.51,0.97,9.16,2.92,10.97c1.95,1.81,4.79,2.71,8.52,2.71
			c5.76,0,12.04-2.92,18.82-8.78c6.78-5.85,13.82-16.09,21.11-30.71l3.81,4.13c-5.94,15.14-13.48,26.93-22.63,35.36
			C513,197.87,503.17,202.09,492.66,202.09z M522.67,85.68c-3.22,0-6.15-0.81-8.77-2.45c-2.63-1.63-3.94-4.17-3.94-7.61
			c0-4.13,2.2-7.65,6.61-10.58c4.41-2.92,8.99-4.39,13.73-4.39c3.05,0,5.64,0.69,7.76,2.06c2.12,1.38,3.18,3.87,3.18,7.49
			c0,3.61-1.95,7.1-5.85,10.45C531.48,84,527.25,85.68,522.67,85.68z"/>
		<path d="M563.87,205.7c-10.85,0-19.2-2.97-25.05-8.9s-8.77-13.38-8.77-22.33c0-7.57,1.91-15.62,5.72-24.13
			c3.82-8.52,8.94-16.52,15.39-24c6.44-7.49,13.56-13.55,21.36-18.2c7.8-4.65,15.6-6.97,23.4-6.97c4.41,0,8.6,1.16,12.59,3.48
			c3.98,2.32,5.98,6.93,5.98,13.81c0,6.54-1.87,12.65-5.59,18.33c-3.73,5.68-8.74,10.75-15.01,15.23
			c-6.27,4.48-13.19,8.13-20.73,10.97c-7.55,2.84-15.13,4.69-22.76,5.55c-0.17,0.69-0.3,1.42-0.38,2.19
			c-0.09,0.77-0.13,2.02-0.13,3.74c0,0.86,0.13,2.37,0.38,4.52c0.25,2.15,0.97,4.43,2.16,6.84c1.18,2.41,3.14,4.48,5.85,6.19
			c2.71,1.72,6.44,2.58,11.19,2.58c7.12,0,14.28-2.02,21.49-6.07c7.21-4.04,13.99-9.42,20.35-16.13c6.36-6.71,11.66-14.2,15.9-22.46
			l5.09,4.13c-4.58,10.32-10.47,19.36-17.68,27.1c-7.21,7.74-15.18,13.76-23.91,18.07C581.96,203.55,573.02,205.7,563.87,205.7z
			 M553.18,158.98c4.41-0.52,9.32-2.06,14.75-4.65c5.42-2.58,10.64-5.85,15.64-9.81c5-3.96,9.11-8.3,12.34-13.03
			c3.22-4.73,4.83-9.51,4.83-14.33c0-1.89-0.34-3.18-1.02-3.87c-0.68-0.69-1.78-1.03-3.31-1.03c-3.9,0-7.97,1.42-12.21,4.26
			c-4.24,2.84-8.39,6.54-12.46,11.1c-4.07,4.56-7.72,9.59-10.94,15.1C557.59,148.23,555.05,153.65,553.18,158.98z"/>
		<path d="M695.1,204.15c-5.77,0-9.62-2.54-11.57-7.61c-1.95-5.07-3.1-11.14-3.43-18.2c0.17-2.07,0.29-4.9,0.38-8.52
			c0.08-3.61,0.21-6.62,0.38-9.03c-3.56,6.54-7.46,12.99-11.7,19.36c-4.24,6.37-8.73,11.61-13.48,15.74
			c-4.75,4.13-9.75,6.19-15,6.19c-5.77,0-10.52-2.62-14.24-7.87c-3.73-5.25-5.59-11.57-5.59-18.97c0-4.99,0.8-10.75,2.42-17.29
			c1.61-6.54,3.64-12.91,6.1-19.1c2.46-6.19,5-11.36,7.63-15.49c2.63-4.13,4.96-6.19,6.99-6.19c1.18,0,3.26,0.69,6.23,2.06
			c2.96,1.38,4.79,3.19,5.47,5.42c-1.87,2.75-4.11,6.97-6.74,12.65c-2.63,5.68-4.92,11.74-6.87,18.2
			c-1.95,6.45-2.92,12.35-2.92,17.68c0,1.03,0.13,2.8,0.38,5.29c0.25,2.5,0.97,4.77,2.16,6.84c1.18,2.06,2.96,3.1,5.34,3.1
			c3.73,0,7.67-2.32,11.83-6.97c4.15-4.65,8.35-10.49,12.59-17.55c4.24-7.05,8.22-14.28,11.95-21.68c1.53-7.4,2.8-12.73,3.81-16
			c1.02-3.27,2.08-5.33,3.18-6.19c1.1-0.86,2.42-1.29,3.94-1.29c3.22,0,5.72,0.65,7.5,1.94c1.78,1.29,2.67,3.14,2.67,5.55
			c0,0.17-0.17,0.9-0.51,2.19c-0.34,1.29-0.6,2.11-0.76,2.45c-1.02,3.61-1.95,7.96-2.8,13.03c-0.85,5.08-1.53,10.5-2.03,16.26
			c-0.51,5.77-0.76,11.57-0.76,17.42c0,4.13,0.25,7.36,0.76,9.68c0.51,2.32,1.78,3.48,3.81,3.48c2.37,0,5.13-1.46,8.27-4.39
			c3.14-2.92,6.44-6.8,9.92-11.62c3.47-4.81,6.87-10.11,10.17-15.87c3.31-5.76,6.31-11.57,9.03-17.42c0-8.95,0.64-15.74,1.91-20.39
			c1.27-4.65,2.96-7.87,5.09-9.68c2.12-1.81,4.45-2.71,6.99-2.71c4.24,0,7.16,1.38,8.77,4.13c1.61,2.75,2.42,5.08,2.42,6.97
			c0,1.72-0.43,3.32-1.27,4.77c-0.85,1.46-1.53,2.8-2.03,4c-1.19,2.58-2.33,5.68-3.43,9.29c-1.1,3.61-1.65,8.17-1.65,13.68
			c0,2.93,0.29,5.9,0.89,8.9c0.59,3.01,1.69,5.46,3.31,7.36c1.61,1.9,3.94,2.84,6.99,2.84c3.05,0,6.14-1.38,9.28-4.13
			c3.14-2.75,6.57-7.91,10.3-15.49l4.83,3.87c-3.73,8.95-7.97,15.1-12.72,18.46c-4.75,3.36-9.33,5.03-13.73,5.03
			c-5.6,0-10.34-2.07-14.24-6.2c-3.9-4.13-6.95-9.2-9.16-15.23c-4.24,7.4-8.95,14.76-14.12,22.07
			c-5.17,7.32-10.55,13.34-16.15,18.07C706.29,201.78,700.7,204.15,695.1,204.15z"/>
	</g>
	<g>
		<linearGradient id="SVGID_1_" gradientUnits="userSpaceOnUse" x1="10.7046" y1="112.6541" x2="792" y2="112.6541">
			<stop  offset="0" style="stop-color:#0A00B2"/>
			<stop  offset="1" style="stop-color:#FF0000"/>
			<stop  offset="1" style="stop-color:#FFFC00"/>
		</linearGradient>
		<path class="st0" d="M42.24,216.8c-10.34,0-18.15-1.72-23.4-5.16c-5.26-3.44-7.97-9.12-8.14-17.04c0-1.72,0.93-2.58,2.8-2.58
			c1.53,0,3.85,0.39,6.99,1.16c3.14,0.77,9.11,1.16,17.93,1.16c14.92,0,28.65-1.59,41.2-4.78c12.55-3.18,23.44-7.48,32.68-12.9
			c9.24-5.42,16.4-11.53,21.49-18.33c5.09-6.79,7.63-13.89,7.63-21.29c0-6.71-1.99-12.09-5.98-16.13
			c-3.99-4.04-9.24-7.14-15.77-9.29c-6.53-2.15-13.65-3.57-21.36-4.26c-7.72-0.69-15.3-1.03-22.76-1.03c-3.22,0-6.45,0.04-9.66,0.13
			c-3.22,0.09-6.27,0.13-9.16,0.13c-3.73,13.08-7.38,26.58-10.94,40.52c-3.56,13.94-7.29,27.62-11.19,41.04
			c-5.09,0-9.5-1.38-13.23-4.13c-3.73-2.75-5.6-6.11-5.6-10.07c0-1.55,0.29-3.57,0.89-6.07c0.59-2.49,1.48-5.46,2.67-8.9
			c1.02-3.27,2.75-8.69,5.21-16.26c2.46-7.57,5.38-16.52,8.77-26.84c3.39-10.32,7.16-21.21,11.32-32.65
			c4.15-11.44,8.48-22.67,12.97-33.68c4.49-11.01,8.94-20.91,13.35-29.68c-6.78,1.55-12.38,3.36-16.79,5.42
			c-4.41,2.06-7.88,3.87-10.43,5.42c-2.54,1.55-4.49,2.32-5.85,2.32c-1.02,0-2.33-0.6-3.94-1.81c-1.61-1.2-3.05-2.58-4.32-4.13
			c-1.27-1.55-1.91-2.92-1.91-4.13c9.16-3.78,18.65-7.14,28.49-10.07c9.83-2.92,21.7-4.39,35.61-4.39c6.1,0,12.8,0.48,20.09,1.42
			c7.29,0.95,14.24,2.84,20.86,5.68c6.61,2.84,12.08,7.06,16.4,12.65c4.32,5.59,6.49,13.03,6.49,22.33c0,7.4-1.57,13.81-4.71,19.23
			c-3.14,5.42-7.34,10.07-12.59,13.94c-5.26,3.87-11.02,7.06-17.29,9.55c-6.27,2.5-12.46,4.52-18.57,6.07
			c10.51,1.38,19.29,3.57,26.32,6.58c7.03,3.01,12.63,6.5,16.79,10.45c4.15,3.96,7.12,8.05,8.9,12.26c1.78,4.22,2.67,8.3,2.67,12.26
			c0,10.16-2.63,19.27-7.88,27.36c-5.26,8.09-12.17,15.14-20.73,21.16c-8.56,6.02-17.97,11.05-28.23,15.1
			c-10.26,4.04-20.47,7.1-30.65,9.16C59.54,215.77,50.38,216.8,42.24,216.8z M59.28,96.78c9.49-0.34,18.82-1.46,27.98-3.36
			c9.16-1.89,17.42-4.69,24.8-8.39c7.38-3.7,13.26-8.52,17.68-14.45c4.41-5.94,6.61-13.29,6.61-22.07c0-8.26-2.21-14.62-6.61-19.1
			c-4.41-4.47-10.17-7.57-17.29-9.29c-7.12-1.72-14.75-2.58-22.89-2.58c-0.17,0-0.34,0-0.51,0c-0.17,0-0.34,0-0.51,0
			C82.76,29.07,77.51,41.59,72.76,55.1C68.01,68.61,63.52,82.5,59.28,96.78z"/>
		<linearGradient id="SVGID_2_" gradientUnits="userSpaceOnUse" x1="10.7046" y1="112.6541" x2="792" y2="112.6541">
			<stop  offset="0" style="stop-color:#0A00B2"/>
			<stop  offset="1" style="stop-color:#FF0000"/>
			<stop  offset="1" style="stop-color:#FFFC00"/>
		</linearGradient>
		<path class="st1" d="M182.38,202.6c-7.63,0-12.84-2.54-15.64-7.61s-4.2-10.62-4.2-16.65c0-5.5,0.85-11.14,2.54-16.91
			c1.69-5.76,4.03-11.14,6.99-16.13c2.96-4.99,6.27-8.99,9.92-12c3.64-3.01,7.33-4.52,11.06-4.52c1.18,0,2.58,0.22,4.2,0.65
			c1.61,0.43,2.75,1.08,3.43,1.94c-2.03,2.58-4.11,5.77-6.23,9.55c-2.12,3.79-4.07,7.79-5.85,12c-1.78,4.22-3.18,8.48-4.2,12.78
			c-1.02,4.3-1.53,8.26-1.53,11.87c0,3.44,0.64,6.28,1.91,8.52c1.27,2.24,3.52,3.36,6.74,3.36c3.22,0,7.08-1.85,11.57-5.55
			c4.49-3.7,8.77-7.96,12.84-12.78c-5.43-4.99-9.33-10.45-11.7-16.39c-2.38-5.94-3.56-13.12-3.56-21.55c0-3.61,0.89-7.74,2.67-12.39
			c1.78-4.65,4.66-8.69,8.65-12.13c3.98-3.44,9.37-5.16,16.15-5.16c7.29,0,12.42,2.06,15.39,6.19c2.96,4.13,4.45,9.03,4.45,14.71
			c0,6.37-1.65,13.51-4.96,21.42c-3.31,7.92-7.25,15.4-11.83,22.46c2.03,1.03,4.41,1.55,7.12,1.55c2.54,0,5.6-0.6,9.16-1.81
			c3.56-1.2,7.03-3.23,10.43-6.07c3.39-2.84,6.1-6.67,8.14-11.49l4.58,3.36c-3.73,8.78-8.69,15.19-14.88,19.23
			c-6.19,4.04-12.25,6.07-18.18,6.07c-2.21,0-4.41-0.21-6.61-0.64c-2.21-0.43-4.24-0.99-6.1-1.68
			c-5.77,6.88-12.38,12.91-19.84,18.07C197.55,200.02,190.01,202.6,182.38,202.6z M222.56,162.86c4.07-6.02,7.54-12.47,10.43-19.36
			c2.88-6.88,4.32-13.25,4.32-19.1c0-3.96-0.6-6.84-1.78-8.65c-1.19-1.81-2.97-2.71-5.34-2.71c-3.22,0-6.53,2.32-9.92,6.97
			c-3.39,4.65-5.09,10.5-5.09,17.55c0,3.61,0.64,8,1.91,13.16C218.37,155.89,220.19,159.93,222.56,162.86z"/>
		<linearGradient id="SVGID_3_" gradientUnits="userSpaceOnUse" x1="10.7046" y1="112.6541" x2="792" y2="112.6541">
			<stop  offset="0" style="stop-color:#0A00B2"/>
			<stop  offset="1" style="stop-color:#FF0000"/>
			<stop  offset="1" style="stop-color:#FFFC00"/>
		</linearGradient>
		<path class="st2" d="M276.99,202.6c-7.63,0-12.84-2.54-15.64-7.61s-4.2-10.62-4.2-16.65c0-5.5,0.85-11.14,2.54-16.91
			c1.69-5.76,4.03-11.14,6.99-16.13c2.96-4.99,6.27-8.99,9.92-12c3.64-3.01,7.33-4.52,11.06-4.52c1.18,0,2.58,0.22,4.2,0.65
			c1.61,0.43,2.75,1.08,3.43,1.94c-2.03,2.58-4.11,5.77-6.23,9.55c-2.12,3.79-4.07,7.79-5.85,12c-1.78,4.22-3.18,8.48-4.2,12.78
			c-1.02,4.3-1.53,8.26-1.53,11.87c0,3.44,0.64,6.28,1.91,8.52c1.27,2.24,3.52,3.36,6.74,3.36c3.22,0,7.08-1.85,11.57-5.55
			c4.49-3.7,8.77-7.96,12.84-12.78c-5.43-4.99-9.33-10.45-11.7-16.39c-2.38-5.94-3.56-13.12-3.56-21.55c0-3.61,0.89-7.74,2.67-12.39
			c1.78-4.65,4.66-8.69,8.65-12.13c3.98-3.44,9.37-5.16,16.15-5.16c7.29,0,12.42,2.06,15.39,6.19c2.96,4.13,4.45,9.03,4.45,14.71
			c0,6.37-1.65,13.51-4.96,21.42c-3.31,7.92-7.25,15.4-11.83,22.46c2.03,1.03,4.41,1.55,7.12,1.55c2.54,0,5.6-0.6,9.16-1.81
			c3.56-1.2,7.03-3.23,10.43-6.07c3.39-2.84,6.1-6.67,8.14-11.49l4.58,3.36c-3.73,8.78-8.69,15.19-14.88,19.23
			c-6.19,4.04-12.25,6.07-18.18,6.07c-2.21,0-4.41-0.21-6.61-0.64c-2.21-0.43-4.24-0.99-6.1-1.68
			c-5.77,6.88-12.38,12.91-19.84,18.07C292.16,200.02,284.62,202.6,276.99,202.6z M317.17,162.86c4.07-6.02,7.54-12.47,10.43-19.36
			c2.88-6.88,4.32-13.25,4.32-19.1c0-3.96-0.6-6.84-1.78-8.65c-1.19-1.81-2.97-2.71-5.34-2.71c-3.22,0-6.53,2.32-9.92,6.97
			c-3.39,4.65-5.09,10.5-5.09,17.55c0,3.61,0.64,8,1.91,13.16C312.98,155.89,314.8,159.93,317.17,162.86z"/>
		<linearGradient id="SVGID_4_" gradientUnits="userSpaceOnUse" x1="10.7046" y1="112.6541" x2="792" y2="112.6541">
			<stop  offset="0" style="stop-color:#0A00B2"/>
			<stop  offset="1" style="stop-color:#FF0000"/>
			<stop  offset="1" style="stop-color:#FFFC00"/>
		</linearGradient>
		<path class="st3" d="M435.43,204.15c-5.26,0-9.83-1.72-13.73-5.16c-3.9-3.44-7.04-7.74-9.41-12.91
			c-2.38-5.16-4.16-10.45-5.34-15.87c-1.19-5.42-1.78-10.11-1.78-14.07c2.37-0.52,5.34-1.29,8.9-2.32s7.2-2.45,10.94-4.26
			c3.73-1.81,6.82-4.04,9.28-6.71c2.46-2.67,3.69-5.89,3.69-9.68c0-3.1-0.98-5.59-2.92-7.48c-1.95-1.89-4.71-2.84-8.27-2.84
			c-4.75,0-9.24,1.59-13.48,4.77c-4.24,3.19-8.18,7.36-11.83,12.52c-3.65,5.16-6.95,10.76-9.92,16.78
			c-2.97,6.03-5.6,11.87-7.88,17.55c-2.29,5.68-4.2,10.58-5.72,14.71c-1.87,5.16-3.65,8.65-5.34,10.45
			c-1.7,1.81-4.16,2.71-7.38,2.71c-1.19,0-2.59-0.35-4.2-1.03c-1.61-0.69-2.97-2.41-4.07-5.16c-1.1-2.75-1.65-7.14-1.65-13.16
			c0-10.49,1.44-22.02,4.32-34.59c2.88-12.56,6.74-25.33,11.57-38.33c4.83-12.99,10.13-25.42,15.9-37.3
			c5.76-11.87,11.61-22.54,17.55-32c5.93-9.46,11.48-16.95,16.66-22.46c5.17-5.5,9.45-8.26,12.84-8.26c2.88,0,5.3,1.77,7.25,5.29
			c1.95,3.53,2.92,8.05,2.92,13.55c0,5.85-1.27,12.35-3.82,19.49c-2.54,7.14-6.15,14.37-10.81,21.68
			c-4.67,7.32-10.22,14.24-16.66,20.78c-6.45,6.54-13.57,12.13-21.36,16.78c-4.75,11.19-8.39,22.24-10.94,33.17
			c-2.54,10.93-4.16,20.61-4.83,29.04c3.05-7.05,6.53-14.28,10.43-21.68c3.9-7.4,8.22-14.33,12.97-20.78
			c4.74-6.45,9.88-11.66,15.39-15.62c5.51-3.96,11.4-5.94,17.68-5.94c6.78,0,12.72,2.41,17.8,7.23c5.09,4.82,7.63,10.84,7.63,18.07
			c0,5.16-1.36,9.64-4.07,13.42c-2.71,3.79-6.06,6.93-10.05,9.42c-3.99,2.5-8.01,4.35-12.08,5.55c-4.07,1.21-7.55,1.9-10.43,2.06
			c0.51,2.24,1.23,5.08,2.16,8.52c0.93,3.44,2.16,6.8,3.69,10.07c1.53,3.27,3.47,6.02,5.85,8.26c2.37,2.24,5.17,3.36,8.39,3.36
			c4.24,0,8.6-1.98,13.1-5.94c4.49-3.96,8.9-9.2,13.23-15.74c4.32-6.54,8.18-13.76,11.57-21.68l3.56,4.39
			c-2.88,8.61-6.83,16.87-11.83,24.78c-5,7.92-10.55,14.32-16.66,19.23C448.15,201.7,441.88,204.15,435.43,204.15z M399.07,90.07
			c4.58-4.13,9.41-9.25,14.5-15.36c5.09-6.11,9.45-12.65,13.1-19.62c3.64-6.97,5.55-13.64,5.72-20c0-0.17,0-0.3,0-0.39
			c0-0.08,0-0.21,0-0.39c-1.7,0.69-4.37,3.66-8.01,8.9c-3.65,5.25-7.67,11.92-12.08,20C407.88,71.32,403.47,80.26,399.07,90.07z"/>
		<linearGradient id="SVGID_5_" gradientUnits="userSpaceOnUse" x1="10.7046" y1="112.6541" x2="792" y2="112.6541">
			<stop  offset="0" style="stop-color:#0A00B2"/>
			<stop  offset="1" style="stop-color:#FF0000"/>
			<stop  offset="1" style="stop-color:#FFFC00"/>
		</linearGradient>
		<path class="st4" d="M492.66,202.09c-7.46,0-13.06-2.24-16.79-6.71s-5.59-9.89-5.59-16.26c0-3.96,0.68-8.94,2.03-14.97
			c1.36-6.02,3.26-12.34,5.72-18.97c2.46-6.62,5.3-12.86,8.52-18.71c3.22-5.85,6.7-10.62,10.43-14.33c3.73-3.7,7.46-5.55,11.19-5.55
			c2.03,0,3.81,0.65,5.34,1.94c1.53,1.29,2.29,3.14,2.29,5.55c0,2.24-1.32,5.59-3.94,10.07c-2.63,4.48-5.68,9.64-9.16,15.49
			c-3.48,5.85-6.53,11.92-9.16,18.2c-2.63,6.28-3.94,12.26-3.94,17.94c0,5.51,0.97,9.16,2.92,10.97c1.95,1.81,4.79,2.71,8.52,2.71
			c5.76,0,12.04-2.92,18.82-8.78c6.78-5.85,13.82-16.09,21.11-30.71l3.81,4.13c-5.94,15.14-13.48,26.93-22.63,35.36
			C513,197.87,503.17,202.09,492.66,202.09z M522.67,85.68c-3.22,0-6.15-0.81-8.77-2.45c-2.63-1.63-3.94-4.17-3.94-7.61
			c0-4.13,2.2-7.65,6.61-10.58c4.41-2.92,8.99-4.39,13.73-4.39c3.05,0,5.64,0.69,7.76,2.06c2.12,1.38,3.18,3.87,3.18,7.49
			c0,3.61-1.95,7.1-5.85,10.45C531.48,84,527.25,85.68,522.67,85.68z"/>
		<linearGradient id="SVGID_6_" gradientUnits="userSpaceOnUse" x1="10.7046" y1="112.6541" x2="792" y2="112.6541">
			<stop  offset="0" style="stop-color:#0A00B2"/>
			<stop  offset="1" style="stop-color:#FF0000"/>
			<stop  offset="1" style="stop-color:#FFFC00"/>
		</linearGradient>
		<path class="st5" d="M563.87,205.7c-10.85,0-19.2-2.97-25.05-8.9s-8.77-13.38-8.77-22.33c0-7.57,1.91-15.62,5.72-24.13
			c3.82-8.52,8.94-16.52,15.39-24c6.44-7.49,13.56-13.55,21.36-18.2c7.8-4.65,15.6-6.97,23.4-6.97c4.41,0,8.6,1.16,12.59,3.48
			c3.98,2.32,5.98,6.93,5.98,13.81c0,6.54-1.87,12.65-5.59,18.33c-3.73,5.68-8.74,10.75-15.01,15.23
			c-6.27,4.48-13.19,8.13-20.73,10.97c-7.55,2.84-15.13,4.69-22.76,5.55c-0.17,0.69-0.3,1.42-0.38,2.19
			c-0.09,0.77-0.13,2.02-0.13,3.74c0,0.86,0.13,2.37,0.38,4.52c0.25,2.15,0.97,4.43,2.16,6.84c1.18,2.41,3.14,4.48,5.85,6.19
			c2.71,1.72,6.44,2.58,11.19,2.58c7.12,0,14.28-2.02,21.49-6.07c7.21-4.04,13.99-9.42,20.35-16.13c6.36-6.71,11.66-14.2,15.9-22.46
			l5.09,4.13c-4.58,10.32-10.47,19.36-17.68,27.1c-7.21,7.74-15.18,13.76-23.91,18.07C581.96,203.55,573.02,205.7,563.87,205.7z
			 M553.18,158.98c4.41-0.52,9.32-2.06,14.75-4.65c5.42-2.58,10.64-5.85,15.64-9.81c5-3.96,9.11-8.3,12.34-13.03
			c3.22-4.73,4.83-9.51,4.83-14.33c0-1.89-0.34-3.18-1.02-3.87c-0.68-0.69-1.78-1.03-3.31-1.03c-3.9,0-7.97,1.42-12.21,4.26
			c-4.24,2.84-8.39,6.54-12.46,11.1c-4.07,4.56-7.72,9.59-10.94,15.1C557.59,148.23,555.05,153.65,553.18,158.98z"/>
		<linearGradient id="SVGID_7_" gradientUnits="userSpaceOnUse" x1="10.7046" y1="112.6541" x2="792" y2="112.6541">
			<stop  offset="0" style="stop-color:#0A00B2"/>
			<stop  offset="1" style="stop-color:#FF0000"/>
			<stop  offset="1" style="stop-color:#FFFC00"/>
		</linearGradient>
		<path class="st6" d="M695.1,204.15c-5.77,0-9.62-2.54-11.57-7.61c-1.95-5.07-3.1-11.14-3.43-18.2c0.17-2.07,0.29-4.9,0.38-8.52
			c0.08-3.61,0.21-6.62,0.38-9.03c-3.56,6.54-7.46,12.99-11.7,19.36c-4.24,6.37-8.73,11.61-13.48,15.74
			c-4.75,4.13-9.75,6.19-15,6.19c-5.77,0-10.52-2.62-14.24-7.87c-3.73-5.25-5.59-11.57-5.59-18.97c0-4.99,0.8-10.75,2.42-17.29
			c1.61-6.54,3.64-12.91,6.1-19.1c2.46-6.19,5-11.36,7.63-15.49c2.63-4.13,4.96-6.19,6.99-6.19c1.18,0,3.26,0.69,6.23,2.06
			c2.96,1.38,4.79,3.19,5.47,5.42c-1.87,2.75-4.11,6.97-6.74,12.65c-2.63,5.68-4.92,11.74-6.87,18.2
			c-1.95,6.45-2.92,12.35-2.92,17.68c0,1.03,0.13,2.8,0.38,5.29c0.25,2.5,0.97,4.77,2.16,6.84c1.18,2.06,2.96,3.1,5.34,3.1
			c3.73,0,7.67-2.32,11.83-6.97c4.15-4.65,8.35-10.49,12.59-17.55c4.24-7.05,8.22-14.28,11.95-21.68c1.53-7.4,2.8-12.73,3.81-16
			c1.02-3.27,2.08-5.33,3.18-6.19c1.1-0.86,2.42-1.29,3.94-1.29c3.22,0,5.72,0.65,7.5,1.94c1.78,1.29,2.67,3.14,2.67,5.55
			c0,0.17-0.17,0.9-0.51,2.19c-0.34,1.29-0.6,2.11-0.76,2.45c-1.02,3.61-1.95,7.96-2.8,13.03c-0.85,5.08-1.53,10.5-2.03,16.26
			c-0.51,5.77-0.76,11.57-0.76,17.42c0,4.13,0.25,7.36,0.76,9.68c0.51,2.32,1.78,3.48,3.81,3.48c2.37,0,5.13-1.46,8.27-4.39
			c3.14-2.92,6.44-6.8,9.92-11.62c3.47-4.81,6.87-10.11,10.17-15.87c3.31-5.76,6.31-11.57,9.03-17.42c0-8.95,0.64-15.74,1.91-20.39
			c1.27-4.65,2.96-7.87,5.09-9.68c2.12-1.81,4.45-2.71,6.99-2.71c4.24,0,7.16,1.38,8.77,4.13c1.61,2.75,2.42,5.08,2.42,6.97
			c0,1.72-0.43,3.32-1.27,4.77c-0.85,1.46-1.53,2.8-2.03,4c-1.19,2.58-2.33,5.68-3.43,9.29c-1.1,3.61-1.65,8.17-1.65,13.68
			c0,2.93,0.29,5.9,0.89,8.9c0.59,3.01,1.69,5.46,3.31,7.36c1.61,1.9,3.94,2.84,6.99,2.84c3.05,0,6.14-1.38,9.28-4.13
			c3.14-2.75,6.57-7.91,10.3-15.49l4.83,3.87c-3.73,8.95-7.97,15.1-12.72,18.46c-4.75,3.36-9.33,5.03-13.73,5.03
			c-5.6,0-10.34-2.07-14.24-6.2c-3.9-4.13-6.95-9.2-9.16-15.23c-4.24,7.4-8.95,14.76-14.12,22.07
			c-5.17,7.32-10.55,13.34-16.15,18.07C706.29,201.78,700.7,204.15,695.1,204.15z"/>
	</g>
</g>
</svg>
