<?xml version="1.0" encoding="utf-8"?>
<!-- Generator: Adobe Illustrator 24.3.0, SVG Export Plug-In . SVG Version: 6.00 Build 0)  -->
<svg version="1.1" id="Layer_1" xmlns="http://www.w3.org/2000/svg" xmlns:xlink="http://www.w3.org/1999/xlink" x="0px" y="0px"
	 viewBox="0 0 800 800" style="enable-background:new 0 0 800 800;" xml:space="preserve">
<style type="text/css">
	.st0{fill:url(#SVGID_1_);}
	.st1{fill:url(#SVGID_2_);}
	.st2{fill:url(#SVGID_3_);}
</style>
<g>
	<g>
		<g>
			<path d="M273.62,749.1c-33.68,0-59.07-5.61-76.18-16.81c-17.12-11.21-25.95-29.7-26.5-55.46c0-5.59,3.03-8.4,9.11-8.4
				c4.97,0,12.55,1.26,22.77,3.78c10.21,2.52,29.67,3.78,58.37,3.78c48.57,0,93.28-5.17,134.13-15.54
				c40.84-10.36,76.3-24.37,106.4-42.01c30.08-17.65,53.4-37.52,69.96-59.66c16.56-22.12,24.84-45.23,24.84-69.32
				c0-21.85-6.49-39.35-19.46-52.52c-12.98-13.16-30.09-23.24-51.34-30.25c-21.26-7-44.44-11.62-69.55-13.86
				c-25.12-2.23-49.82-3.36-74.1-3.36c-10.49,0-20.98,0.14-31.46,0.42c-10.49,0.29-20.43,0.42-29.81,0.42
				c-12.15,42.58-24.01,86.55-35.6,131.92c-11.59,45.38-23.74,89.91-36.43,133.6c-16.56,0-30.92-4.48-43.06-13.44
				c-12.15-8.95-18.22-19.88-18.22-32.77c0-5.04,0.96-11.62,2.9-19.75c1.93-8.11,4.83-17.78,8.69-28.99
				c3.31-10.63,8.97-28.28,16.97-52.94c8-24.64,17.52-53.78,28.57-87.39c11.04-33.61,23.31-69.03,36.85-106.29
				c13.52-37.25,27.6-73.8,42.23-109.66c14.62-35.84,29.11-68.06,43.47-96.63c-22.08,5.04-40.3,10.92-54.65,17.65
				c-14.36,6.72-25.67,12.6-33.95,17.65c-8.28,5.04-14.63,7.56-19.04,7.56c-3.31,0-7.59-1.96-12.83-5.88
				c-5.25-3.91-9.94-8.4-14.08-13.44s-6.21-9.52-6.21-13.44c29.81-12.31,60.72-23.24,92.74-32.77
				c32.01-9.52,70.65-14.28,115.92-14.28c19.87,0,41.67,1.55,65.41,4.62c23.73,3.09,46.37,9.24,67.89,18.49
				c21.53,9.24,39.33,22.98,53.41,41.17c14.08,18.21,21.11,42.43,21.11,72.68c0,24.09-5.11,44.95-15.32,62.6
				c-10.22,17.65-23.88,32.77-40.98,45.37c-17.12,12.6-35.89,22.98-56.3,31.09c-20.43,8.13-40.57,14.7-60.44,19.75
				c34.22,4.49,62.79,11.63,85.7,21.43c22.9,9.81,41.12,21.15,54.65,34.03c13.52,12.89,23.18,26.19,28.98,39.91
				c5.8,13.73,8.7,27.03,8.7,39.91c0,33.06-8.56,62.74-25.67,89.07c-17.12,26.34-39.62,49.3-67.48,68.9
				c-27.88,19.6-58.52,35.99-91.91,49.16c-33.4,13.16-66.65,23.11-99.77,29.83C329.92,745.74,300.12,749.1,273.62,749.1z
				 M329.1,358.38c30.91-1.12,61.27-4.75,91.08-10.92c29.81-6.16,56.72-15.26,80.73-27.31c24.01-12.04,43.18-27.73,57.54-47.06
				c14.35-19.33,21.53-43.27,21.53-71.84c0-26.89-7.18-47.61-21.53-62.18c-14.36-14.56-33.12-24.64-56.3-30.25
				c-23.19-5.59-48.02-8.4-74.52-8.4c-0.56,0-1.11,0-1.66,0c-0.56,0-1.11,0-1.66,0c-18.77,37.54-35.89,78.29-51.34,122.26
				C357.52,266.66,342.89,311.89,329.1,358.38z"/>
		</g>
	</g>
	<g>
		<linearGradient id="SVGID_1_" gradientUnits="userSpaceOnUse" x1="170.9482" y1="410.0544" x2="647.873" y2="410.0544">
			<stop  offset="0" style="stop-color:#0A00B2"/>
			<stop  offset="1" style="stop-color:#FF0000"/>
			<stop  offset="1" style="stop-color:#FFFC00"/>
		</linearGradient>
		<path class="st0" d="M273.62,749.1c-33.68,0-59.07-5.61-76.18-16.81c-17.12-11.21-25.95-29.7-26.5-55.46c0-5.59,3.03-8.4,9.11-8.4
			c4.97,0,12.55,1.26,22.77,3.78c10.21,2.52,29.67,3.78,58.37,3.78c48.57,0,93.28-5.17,134.13-15.54
			c40.84-10.36,76.3-24.37,106.4-42.01c30.08-17.65,53.4-37.52,69.96-59.66c16.56-22.12,24.84-45.23,24.84-69.32
			c0-21.85-6.49-39.35-19.46-52.52c-12.98-13.16-30.09-23.24-51.34-30.25c-21.26-7-44.44-11.62-69.55-13.86
			c-25.12-2.23-49.82-3.36-74.1-3.36c-10.49,0-20.98,0.14-31.46,0.42c-10.49,0.29-20.43,0.42-29.81,0.42
			c-12.15,42.58-24.01,86.55-35.6,131.92c-11.59,45.38-23.74,89.91-36.43,133.6c-16.56,0-30.92-4.48-43.06-13.44
			c-12.15-8.95-18.22-19.88-18.22-32.77c0-5.04,0.96-11.62,2.9-19.75c1.93-8.11,4.83-17.78,8.69-28.99
			c3.31-10.63,8.97-28.28,16.97-52.94c8-24.64,17.52-53.78,28.57-87.39c11.04-33.61,23.31-69.03,36.85-106.29
			c13.52-37.25,27.6-73.8,42.23-109.66c14.62-35.84,29.11-68.06,43.47-96.63c-22.08,5.04-40.3,10.92-54.65,17.65
			c-14.36,6.72-25.67,12.6-33.95,17.65c-8.28,5.04-14.63,7.56-19.04,7.56c-3.31,0-7.59-1.96-12.83-5.88
			c-5.25-3.91-9.94-8.4-14.08-13.44s-6.21-9.52-6.21-13.44c29.81-12.31,60.72-23.24,92.74-32.77
			c32.01-9.52,70.65-14.28,115.92-14.28c19.87,0,41.67,1.55,65.41,4.62c23.73,3.09,46.37,9.24,67.89,18.49
			c21.53,9.24,39.33,22.98,53.41,41.17c14.08,18.21,21.11,42.43,21.11,72.68c0,24.09-5.11,44.95-15.32,62.6
			c-10.22,17.65-23.88,32.77-40.98,45.37c-17.12,12.6-35.89,22.98-56.3,31.09c-20.43,8.13-40.57,14.7-60.44,19.75
			c34.22,4.49,62.79,11.63,85.7,21.43c22.9,9.81,41.12,21.15,54.65,34.03c13.52,12.89,23.18,26.19,28.98,39.91
			c5.8,13.73,8.7,27.03,8.7,39.91c0,33.06-8.56,62.74-25.67,89.07c-17.12,26.34-39.62,49.3-67.48,68.9
			c-27.88,19.6-58.52,35.99-91.91,49.16c-33.4,13.16-66.65,23.11-99.77,29.83C329.92,745.74,300.12,749.1,273.62,749.1z
			 M329.1,358.38c30.91-1.12,61.27-4.75,91.08-10.92c29.81-6.16,56.72-15.26,80.73-27.31c24.01-12.04,43.18-27.73,57.54-47.06
			c14.35-19.33,21.53-43.27,21.53-71.84c0-26.89-7.18-47.61-21.53-62.18c-14.36-14.56-33.12-24.64-56.3-30.25
			c-23.19-5.59-48.02-8.4-74.52-8.4c-0.56,0-1.11,0-1.66,0c-0.56,0-1.11,0-1.66,0c-18.77,37.54-35.89,78.29-51.34,122.26
			C357.52,266.66,342.89,311.89,329.1,358.38z"/>
	</g>
</g>
<g>
	<linearGradient id="SVGID_2_" gradientUnits="userSpaceOnUse" x1="490" y1="400" x2="731" y2="400">
		<stop  offset="0" style="stop-color:#0A00B2"/>
		<stop  offset="1" style="stop-color:#FF0000"/>
		<stop  offset="1" style="stop-color:#FFFC00"/>
	</linearGradient>
	<path class="st1" d="M695.88,69H564v10.54h121.34c19.4,0,35.12,15.72,35.12,35.12v570.69c0,19.4-15.72,35.12-35.12,35.12H490V731
		h205.88c19.4,0,35.12-15.72,35.12-35.12V104.12C731,84.72,715.28,69,695.88,69z"/>
	<linearGradient id="SVGID_3_" gradientUnits="userSpaceOnUse" x1="69" y1="400" x2="276" y2="400">
		<stop  offset="0" style="stop-color:#0A00B2"/>
		<stop  offset="1" style="stop-color:#FF0000"/>
		<stop  offset="1" style="stop-color:#FFFC00"/>
	</linearGradient>
	<path class="st2" d="M148,720.46h-33.34c-19.4,0-35.12-15.72-35.12-35.12V114.66c0-19.4,15.72-35.12,35.12-35.12H276V69H104.12
		C84.72,69,69,84.72,69,104.12v591.76c0,19.4,15.72,35.12,35.12,35.12H148V720.46z"/>
</g>
</svg>
